<?xml version="1.0" standalone="no"?>
<!DOCTYPE svg PUBLIC "-//W3C//DTD SVG 20010904//EN"
 "http://www.w3.org/TR/2001/REC-SVG-20010904/DTD/svg10.dtd">
<svg version="1.0" xmlns="http://www.w3.org/2000/svg"
 width="300.000000pt" height="167.000000pt" viewBox="0 0 300.000000 167.000000"
 preserveAspectRatio="xMidYMid meet">
<metadata>
Created by potrace 1.10, written by Peter Selinger 2001-2011
</metadata>
<g transform="translate(0.000000,167.000000) scale(0.100000,-0.100000)"
fill="#000000" stroke="none">
<path d="M11 1651 c-6 -11 -11 -36 -11 -55 l0 -36 1493 0 c822 0 1496 2 1498
4 2 2 2 26 1 54 l-4 49 -51 -1 c-49 -1 -51 -2 -59 -33 -5 -18 -13 -33 -17 -33
-27 0 -41 15 -41 41 0 28 -2 29 -50 29 -37 0 -50 -4 -51 -15 -2 -24 -4 -29
-12 -42 -12 -20 -26 -15 -38 11 -7 14 -22 27 -35 30 -29 8 -64 -9 -64 -29 0
-8 -9 -15 -20 -15 -16 0 -20 7 -22 33 -1 24 -3 20 -8 -18 l-7 -50 -1 46 -2 47
-130 1 -130 2 0 -24 c0 -14 -7 -28 -15 -31 -15 -5 -18 -1 -31 42 -3 9 -19 12
-51 10 -44 -3 -48 -5 -51 -31 -3 -25 -6 -27 -20 -15 -13 11 -15 11 -7 -2 5
-10 5 -12 -3 -5 -5 6 -12 19 -14 30 -6 37 -109 32 -114 -6 -1 -5 -2 -13 -3
-19 -3 -23 -29 -8 -35 21 -6 29 -7 30 -53 27 -39 -2 -49 -7 -51 -23 -8 -42
-20 -46 -139 -44 -116 1 -140 9 -103 31 23 15 27 38 5 38 -8 0 -15 -7 -15 -15
0 -12 -14 -15 -65 -15 -51 0 -65 3 -65 15 0 16 -16 20 -24 6 -3 -4 3 -16 14
-26 11 -10 20 -22 20 -27 0 -10 -770 -11 -770 0 0 4 -7 16 -15 26 -12 16 -30
20 -97 23 -82 3 -190 4 -238 3 -14 -1 -45 1 -70 3 -47 5 -95 -5 -69 -15 8 -3
31 -4 52 -4 20 1 37 -2 37 -5 0 -4 8 -5 19 -2 21 5 36 -11 25 -29 -5 -8 -10
-6 -15 8 -7 17 -8 17 -8 2 -1 -19 -21 -26 -21 -7 0 5 -5 7 -12 3 -27 -17 -70
-11 -78 10 -8 18 -9 19 -9 3 -1 -29 -44 -18 -51 13 -5 21 -12 25 -47 28 -33 2
-44 -1 -52 -17z m65 -1 c20 0 24 -5 24 -30 0 -28 -2 -30 -40 -30 -39 0 -40 1
-40 36 0 29 3 35 16 30 9 -3 27 -6 40 -6z m1809 -24 c0 -16 -6 -31 -13 -34 -9
-3 -11 3 -6 22 5 22 3 26 -15 26 -12 0 -21 -6 -21 -15 0 -8 5 -15 11 -15 5 0
7 -5 4 -10 -5 -8 -11 -7 -21 1 -29 24 -6 62 36 57 20 -2 25 -8 25 -32z m149
18 c22 -21 4 -54 -29 -54 -29 0 -47 27 -34 52 12 22 42 23 63 2z m140 10 c22
-8 20 -47 -2 -60 -23 -15 -52 4 -52 34 0 26 24 38 54 26z m176 -28 c0 -39 -19
-58 -34 -34 -9 15 -11 15 -22 0 -15 -21 -21 -16 -27 25 -6 40 -3 43 45 43 37
0 38 -1 38 -34z m118 -3 c-3 -36 -5 -38 -38 -38 -33 0 -35 2 -38 38 l-3 37 41
0 41 0 -3 -37z m332 2 c0 -32 -2 -35 -30 -35 -28 0 -30 3 -30 35 0 32 2 35 30
35 28 0 30 -3 30 -35z m135 25 c17 14 21 0 4 -17 -8 -8 -8 -13 0 -17 6 -4 11
-12 11 -18 0 -7 -6 -6 -15 2 -12 10 -18 10 -30 0 -17 -14 -21 0 -4 17 8 8 8
13 0 17 -6 4 -11 12 -11 18 0 7 6 6 15 -2 12 -10 18 -10 30 0z m-2551 -6 c9
-3 16 -14 16 -23 0 -14 -9 -18 -44 -18 -34 -1 -43 3 -42 16 2 24 38 37 70 25z
m66 -9 c10 -12 10 -19 2 -27 -16 -16 -42 -2 -42 22 0 24 22 26 40 5z m48 0
c58 12 82 14 78 7 -3 -4 10 -8 27 -8 20 1 33 -4 35 -14 2 -12 -9 -15 -53 -16
-44 -1 -55 2 -56 15 -1 14 -2 13 -6 -1 -6 -23 -50 -20 -56 4 -5 18 5 36 11 20
2 -6 11 -8 20 -7z m2152 -12 c0 -15 -56 -18 -64 -4 -8 12 -1 16 33 16 18 0 31
-5 31 -12z"/>
<path d="M2750 1620 c0 -13 7 -20 20 -20 13 0 20 7 20 20 0 13 -7 20 -20 20
-13 0 -20 -7 -20 -20z"/>
<path d="M2995 765 c0 -424 1 -595 2 -382 2 214 2 560 0 770 -1 210 -2 36 -2
-388z"/>
<path d="M900 1470 c0 -27 5 -50 10 -50 6 0 10 11 10 25 0 18 5 25 20 25 15 0
20 -7 20 -25 0 -14 5 -25 10 -25 6 0 10 23 10 50 0 28 -4 50 -10 50 -5 0 -10
-9 -10 -20 0 -13 -7 -20 -20 -20 -13 0 -20 7 -20 20 0 11 -4 20 -10 20 -5 0
-10 -22 -10 -50z"/>
<path d="M1078 1498 c-7 -20 6 -71 18 -75 10 -3 10 6 5 80 -1 12 -19 8 -23 -5z"/>
<path d="M990 1461 c0 -17 5 -33 10 -36 6 -4 10 8 10 29 0 20 -4 36 -10 36 -5
0 -10 -13 -10 -29z"/>
<path d="M1025 1479 c-4 -6 1 -17 11 -24 18 -14 18 -14 1 -15 -10 0 -15 -4
-12 -10 8 -13 16 -12 35 0 13 9 12 12 -5 26 -17 13 -18 16 -5 24 13 8 13 10
-2 10 -9 0 -20 -5 -23 -11z"/>
<path d="M1123 1474 c-8 -20 8 -48 30 -52 19 -4 39 30 31 52 -8 21 -53 21 -61
0z m47 -14 c0 -21 -24 -28 -35 -10 -8 14 3 30 21 30 8 0 14 -9 14 -20z"/>
<path d="M1201 1453 c1 -36 2 -36 8 -9 8 40 27 43 39 8 8 -24 7 -33 -6 -46
-15 -14 -15 -16 0 -16 9 0 24 20 36 50 20 48 15 73 -5 28 l-10 -23 -7 23 c-5
15 -15 22 -32 22 -21 0 -24 -4 -23 -37z"/>
<path d="M160 1445 c0 -17 2 -18 11 -5 8 11 12 12 16 3 6 -16 113 -18 113 -3
0 6 5 10 10 10 6 0 10 -7 10 -16 0 -8 5 -12 10 -9 6 3 10 12 10 20 0 19 -99
25 -117 7 -11 -11 -13 -11 -13 1 0 10 -9 14 -25 13 -18 -1 -25 -7 -25 -21z"/>
<path d="M80 1425 c-9 -10 -9 -15 -1 -15 6 0 11 5 11 10 0 6 5 10 10 10 12 0
9 -22 -5 -32 -6 -5 -6 -8 1 -8 17 0 37 27 29 40 -9 15 -31 12 -45 -5z"/>
<path d="M162 1397 c2 -10 5 -18 8 -17 3 1 18 -3 33 -9 19 -7 26 -8 22 -1 -4
7 3 8 20 4 21 -5 27 -4 23 7 -3 9 -18 14 -41 13 -20 -1 -34 2 -31 7 3 5 0 9
-5 9 -6 0 -11 -6 -11 -12 0 -9 -4 -8 -11 2 -8 13 -10 12 -7 -3z"/>
<path d="M409 1400 c-8 -5 -27 -7 -43 -6 -21 3 -26 0 -22 -13 4 -11 2 -10 -9
3 -12 16 -15 17 -15 4 0 -23 27 -30 45 -12 8 9 15 11 15 6 0 -6 7 -12 14 -15
10 -4 13 -1 9 9 -3 7 0 14 6 14 6 0 11 -4 11 -10 0 -5 5 -10 10 -10 12 0 14
27 2 34 -4 2 -14 1 -23 -4z"/>
<path d="M460 1395 c0 -13 7 -21 18 -21 9 -1 24 -3 32 -5 8 -2 14 2 13 9 -2 6
4 12 12 12 8 0 12 -6 9 -15 -7 -18 35 -12 48 7 6 10 8 10 9 -2 1 -8 1 -19 0
-25 -1 -5 6 -1 14 9 8 11 15 23 15 26 0 4 -29 6 -64 5 -36 -1 -63 2 -60 7 3 4
1 8 -5 8 -5 0 -12 -6 -14 -12 -4 -10 -8 -9 -16 2 -9 13 -11 12 -11 -5z"/>
<path d="M2910 1305 c0 -10 10 -15 30 -15 20 0 30 5 30 15 0 10 -10 15 -30 15
-20 0 -30 -5 -30 -15z"/>
<path d="M896 1291 c-9 -15 18 -31 34 -20 13 8 13 10 0 19 -19 12 -27 12 -34
1z"/>
<path d="M978 1293 c-16 -2 -28 -8 -28 -13 0 -14 31 -20 49 -10 10 5 22 6 26
2 4 -4 6 -1 3 7 -5 17 -13 19 -50 14z"/>
<path d="M2380 1285 c0 -12 9 -15 35 -13 22 1 35 7 35 16 0 8 -5 10 -12 5 -19
-11 -38 -12 -38 -2 0 5 -4 9 -10 9 -5 0 -10 -7 -10 -15z"/>
<path d="M2460 1283 c0 -8 13 -13 35 -13 19 0 35 4 35 9 0 5 -16 11 -35 13
-24 3 -35 0 -35 -9z"/>
<path d="M2770 1285 c0 -17 17 -28 24 -17 6 10 48 8 64 -2 6 -3 12 1 16 9 3 8
0 15 -7 16 -7 0 -31 2 -54 4 -31 2 -43 0 -43 -10z"/>
<path d="M298 1218 c-3 -7 -19 -11 -41 -10 -26 2 -37 -2 -37 -11 0 -9 14 -14
45 -14 27 -1 45 4 45 11 0 6 5 4 10 -4 7 -11 10 -12 10 -2 0 20 -27 45 -32 30z"/>
<path d="M160 1200 c0 -15 6 -19 25 -18 14 1 25 8 25 16 0 7 -4 10 -10 7 -5
-3 -10 -1 -10 4 0 6 -7 11 -15 11 -8 0 -15 -9 -15 -20z"/>
<path d="M70 1180 c0 -6 5 -10 10 -10 6 0 10 -8 10 -17 1 -16 2 -16 15 1 20
27 19 31 -10 34 -14 1 -25 -3 -25 -8z"/>
<path d="M160 1144 c0 -15 8 -19 40 -21 30 -2 38 1 34 11 -7 19 -38 30 -42 16
-3 -8 -8 -7 -18 1 -11 9 -14 8 -14 -7z"/>
<path d="M370 1140 c0 -24 25 -27 34 -4 3 8 2 12 -4 9 -6 -3 -10 -1 -10 4 0 6
-4 11 -10 11 -5 0 -10 -9 -10 -20z"/>
<path d="M485 1150 c-3 -5 1 -10 9 -10 9 0 16 -4 16 -10 0 -5 13 -8 30 -7 16
1 30 8 30 15 0 7 -11 11 -28 10 -15 -1 -33 1 -39 5 -6 4 -14 3 -18 -3z"/>
<path d="M246 1135 c4 -9 19 -15 36 -15 19 0 27 -4 22 -11 -3 -6 5 -3 20 6 33
22 33 33 1 33 -16 0 -22 -5 -18 -12 4 -6 -1 -5 -11 3 -15 13 -19 13 -27 0 -6
-10 -9 -10 -9 -1 0 6 -4 12 -10 12 -5 0 -7 -7 -4 -15z"/>
<path d="M416 1135 c-3 -10 1 -15 13 -15 11 0 22 6 24 13 4 10 6 10 6 0 1 -7
11 -13 24 -13 22 1 22 1 -3 15 -33 19 -56 19 -64 0z"/>
<path d="M1688 1131 c-10 -3 -14 -11 -10 -17 9 -14 72 -24 72 -12 0 5 6 6 13
1 6 -4 17 -8 24 -9 14 -2 25 34 12 42 -5 3 -9 -2 -9 -10 0 -8 -5 -18 -12 -22
-7 -5 -9 -2 -5 8 6 17 -8 19 -30 5 -8 -5 -13 -3 -13 3 0 6 -4 9 -9 6 -5 -4
-11 -2 -13 3 -1 4 -11 6 -20 2z"/>
<path d="M1843 1113 c-1 -19 1 -22 8 -12 5 8 9 10 9 4 0 -5 5 -3 10 5 5 8 10
10 10 3 0 -12 24 -12 36 0 3 3 13 0 20 -8 16 -16 54 -8 54 11 0 8 -4 14 -10
14 -5 0 -10 -4 -10 -10 0 -5 -5 -10 -11 -10 -5 0 -8 4 -5 9 3 5 -16 9 -43 8
-26 0 -52 2 -57 6 -5 3 -10 -6 -11 -20z"/>
<path d="M2740 1126 c0 -19 -16 -21 -23 -3 -4 7 -6 6 -6 -4 -1 -24 41 -33 57
-11 11 15 14 15 22 2 8 -13 10 -12 10 3 0 12 -6 17 -17 15 -10 -1 -24 1 -30 5
-9 5 -13 3 -13 -7z"/>
<path d="M1206 1114 c-3 -7 -2 -14 0 -17 9 -9 44 5 44 17 0 15 -38 15 -44 0z"/>
<path d="M1295 1111 c-3 -7 -3 -16 0 -19 3 -3 5 0 5 7 0 7 5 9 10 6 6 -3 10 0
10 7 0 9 3 10 8 2 8 -13 83 -24 75 -11 -3 5 4 6 16 2 13 -4 21 -2 21 5 0 6 -4
9 -9 5 -5 -3 -12 -1 -15 4 -7 10 -25 9 -43 -2 -8 -5 -13 -4 -13 3 0 15 -59 8
-65 -9z"/>
<path d="M1453 1110 c1 -16 29 -21 35 -7 6 18 0 26 -17 24 -11 -1 -19 -8 -18
-17z"/>
<path d="M1507 1114 c2 -7 11 -15 19 -18 9 -4 12 -2 8 5 -4 8 1 9 15 4 14 -4
21 -2 21 7 0 8 -13 13 -34 14 -24 1 -33 -2 -29 -12z"/>
<path d="M2024 1118 c-3 -5 -3 -12 0 -15 3 -4 6 0 6 8 0 12 2 12 10 -1 11 -17
81 -15 92 3 6 9 8 9 8 0 0 -9 16 -13 45 -13 33 0 45 4 45 15 0 8 -4 15 -10 15
-5 0 -10 -5 -10 -11 0 -8 -5 -8 -15 1 -12 10 -15 10 -15 -1 0 -9 -3 -10 -8 -3
-9 14 -140 15 -148 2z"/>
<path d="M2311 1118 c-2 -24 15 -31 33 -12 9 8 16 11 16 6 0 -5 23 -10 50 -11
35 -1 50 3 50 11 0 9 4 8 11 -2 8 -12 10 -12 7 -1 -5 16 -58 22 -58 6 0 -7 -3
-7 -8 0 -10 15 -71 12 -81 -4 -7 -11 -10 -10 -14 5 -4 16 -5 16 -6 2z"/>
<path d="M2855 1112 c-7 -19 -6 -22 6 -22 5 0 8 4 5 9 -3 5 1 12 10 15 8 3 12
2 9 -4 -3 -6 1 -10 9 -10 9 0 13 6 10 14 -7 18 -42 17 -49 -2z"/>
<path d="M161 953 c0 -16 3 -22 6 -16 3 10 10 10 24 2 15 -7 24 -7 35 2 11 9
14 9 14 -2 0 -11 2 -11 10 1 8 12 10 12 10 1 0 -11 3 -11 17 0 15 12 16 12 8
-1 -8 -13 -7 -13 8 -1 9 7 17 9 17 4 0 -5 9 -9 20 -10 25 -2 27 23 3 29 -10 3
-46 2 -80 -2 -48 -4 -63 -3 -63 7 0 7 -7 13 -15 13 -10 0 -15 -9 -14 -27z"/>
<path d="M1234 961 c0 -16 10 -18 93 -19 84 -2 93 0 93 16 0 15 -8 19 -35 19
-25 0 -32 -4 -25 -12 6 -7 3 -11 -11 -12 -12 -1 -17 3 -13 9 4 7 2 8 -4 4 -7
-4 -12 -1 -12 6 0 9 -3 9 -10 -2 -5 -8 -10 -10 -10 -5 0 6 -5 3 -10 -5 -7 -12
-10 -12 -10 -1 0 7 -6 11 -15 7 -8 -3 -15 -1 -15 4 0 6 -4 10 -8 10 -4 0 -8
-8 -8 -19z"/>
<path d="M1439 976 c0 -1 -2 -9 -4 -18 -4 -20 11 -24 18 -5 4 10 6 10 6 0 2
-24 31 -14 30 10 0 21 -1 21 -9 2 -6 -15 -9 -16 -9 -4 -1 12 -24 23 -32 15z"/>
<path d="M1618 973 c-28 -7 -22 -33 7 -33 15 0 25 6 25 14 0 18 -10 24 -32 19z"/>
<path d="M1683 959 c-1 -15 5 -19 33 -19 33 0 45 12 24 25 -5 3 -10 1 -10 -4
0 -6 -5 -11 -11 -11 -5 0 -7 6 -3 13 4 6 4 9 -1 5 -4 -4 -13 -4 -19 2 -8 6
-12 3 -13 -11z"/>
<path d="M1783 958 c-2 -24 45 -24 63 0 13 16 14 16 8 0 -5 -14 -1 -18 15 -18
15 0 21 6 20 23 -1 19 -2 19 -6 3 -4 -15 -7 -16 -14 -5 -4 8 -25 14 -47 14
-29 0 -38 -4 -39 -17z"/>
<path d="M1941 971 c-8 -5 -20 -7 -28 -4 -8 3 -11 0 -8 -8 3 -8 19 -15 35 -16
24 -2 30 2 30 17 0 22 -7 24 -29 11z"/>
<path d="M2035 972 c-9 -9 -5 -32 5 -32 5 0 7 8 4 18 -5 16 -5 16 6 0 13 -21
80 -22 80 -1 0 7 -3 12 -7 12 -5 -1 -10 0 -13 1 -12 5 -71 6 -75 2z"/>
<path d="M2317 973 c-14 -13 -6 -33 12 -33 19 0 35 23 24 34 -8 8 -28 8 -36
-1z"/>
<path d="M2383 965 c-37 -16 -27 -25 27 -25 33 0 50 4 50 13 0 8 4 7 10 -3 6
-9 10 -10 10 -3 0 7 -10 17 -21 24 -17 9 -20 8 -14 -2 6 -9 3 -11 -8 -6 -10 4
-17 1 -18 -6 0 -7 -3 -6 -7 3 -5 12 -12 13 -29 5z"/>
<path d="M2742 976 c4 -5 3 -15 -3 -23 -9 -10 -7 -13 6 -13 10 0 24 8 31 18
12 14 13 14 8 1 -3 -10 1 -19 10 -22 9 -4 16 -2 16 4 0 6 5 7 11 3 6 -3 15 0
20 7 6 10 9 11 9 2 0 -20 16 -15 17 5 1 11 -5 18 -17 18 -10 0 -17 -4 -14 -7
2 -4 0 -10 -6 -14 -5 -3 -10 0 -10 7 0 9 -3 9 -10 -2 -8 -13 -10 -12 -10 3 0
19 -15 23 -25 7 -5 -8 -12 -7 -23 2 -10 7 -14 8 -10 4z"/>
<path d="M83 935 c0 -8 4 -15 9 -15 4 0 8 -4 8 -10 0 -5 -7 -7 -15 -4 -8 4
-15 1 -15 -5 0 -6 11 -10 24 -9 19 2 23 8 22 30 -1 29 -33 42 -33 13z"/>
<path d="M194 894 c3 -9 6 -18 6 -20 0 -2 9 -4 20 -4 25 0 26 16 1 30 -27 14
-34 13 -27 -6z"/>
<path d="M370 892 c0 -13 9 -18 30 -20 19 -1 30 2 30 10 0 10 2 10 9 0 6 -11
10 -10 15 3 5 15 1 17 -29 13 -19 -2 -35 0 -35 4 0 4 -4 8 -10 8 -5 0 -10 -8
-10 -18z"/>
<path d="M483 900 c-26 -11 -31 -30 -7 -30 9 0 12 5 8 13 -5 8 -2 8 9 -2 15
-12 17 -11 17 8 0 11 -1 21 -2 20 -2 0 -13 -4 -25 -9z"/>
<path d="M246 885 c6 -16 67 -26 75 -13 3 5 10 9 15 8 5 -1 10 3 12 8 1 5 -9
10 -22 10 -16 0 -23 -5 -19 -12 5 -8 3 -8 -8 0 -21 16 -59 15 -53 -1z"/>
<path d="M520 886 c0 -8 10 -13 24 -13 17 0 23 4 19 13 -3 8 -14 14 -24 14
-10 0 -19 -6 -19 -14z"/>
<path d="M1210 807 c0 -4 6 -5 13 -1 8 5 8 2 -2 -9 -12 -15 -11 -17 13 -17 18
0 26 5 26 18 0 14 2 15 10 2 8 -13 10 -13 10 2 0 12 -9 16 -35 15 -19 -1 -35
-5 -35 -10z"/>
<path d="M1290 798 c0 -20 16 -24 23 -5 4 9 8 9 15 -2 12 -17 33 -6 26 14 -9
22 -64 16 -64 -7z"/>
<path d="M1369 820 c0 -3 -2 -12 -4 -20 -2 -12 6 -16 31 -16 20 0 34 5 34 12
0 16 -28 26 -36 12 -4 -7 -9 -6 -15 3 -5 8 -9 12 -10 9z"/>
<path d="M1443 800 c-1 -13 4 -20 17 -20 24 0 31 12 19 30 -7 13 -9 12 -9 -2
0 -10 -4 -18 -10 -18 -5 0 -7 7 -4 15 4 8 2 15 -3 15 -5 0 -9 -9 -10 -20z"/>
<path d="M1523 800 c1 -23 37 -28 37 -5 0 9 -6 12 -17 8 -11 -4 -14 -3 -9 5 4
7 3 12 -3 12 -5 0 -9 -9 -8 -20z"/>
<path d="M1588 813 c-10 -2 -18 -10 -18 -17 0 -8 28 -12 95 -13 53 -1 93 2 90
7 -3 5 -1 11 5 15 5 3 10 -2 11 -12 0 -16 1 -16 9 2 7 17 9 17 9 3 1 -10 6
-18 11 -18 5 0 9 5 8 11 -2 6 3 14 10 16 8 3 10 -2 6 -14 -4 -13 -3 -15 4 -4
7 9 12 10 16 2 11 -18 26 -13 26 10 0 11 -5 17 -10 14 -6 -4 -8 -12 -4 -18 3
-7 -1 -4 -8 5 -11 13 -26 16 -66 13 -29 -2 -56 -6 -61 -9 -5 -4 -11 -2 -13 3
-1 5 -16 7 -31 4 -21 -4 -25 -8 -15 -14 9 -6 9 -9 1 -9 -7 0 -16 8 -22 18 -9
16 -11 16 -25 -3 -13 -16 -15 -17 -10 -2 3 9 5 16 3 16 -2 -1 -12 -3 -21 -6z"/>
<path d="M1881 795 c0 -20 0 -20 9 0 7 17 9 17 9 3 1 -26 66 -25 68 0 1 16 -6
19 -43 18 -37 -1 -44 -4 -43 -21z"/>
<path d="M2010 808 c0 -4 -1 -11 -2 -15 -6 -16 63 -9 73 6 8 14 10 14 21 1 13
-15 48 -21 48 -7 0 4 0 11 0 15 0 4 -31 8 -70 9 -38 0 -70 -4 -70 -9z"/>
<path d="M2169 815 c0 0 -2 -8 -4 -17 -4 -21 6 -23 23 -6 9 9 12 9 12 0 0 -7
5 -12 10 -12 6 0 10 9 10 20 0 15 -6 19 -25 18 -14 -1 -25 -3 -26 -3z"/>
<path d="M2310 799 c0 -22 35 -27 43 -6 4 10 6 10 6 0 1 -9 18 -13 51 -13 33
0 50 4 50 13 0 8 4 7 10 -3 8 -13 10 -13 10 1 0 20 -31 30 -54 17 -9 -5 -16
-5 -16 -1 0 4 -23 9 -50 10 -43 2 -50 -1 -50 -18z"/>
<path d="M2748 802 c9 -7 12 -11 5 -8 -6 4 -14 2 -18 -4 -3 -5 3 -10 14 -10
13 0 21 7 21 18 1 15 2 15 13 2 14 -18 57 -24 57 -9 0 6 -4 7 -10 4 -5 -3 -10
-1 -10 4 0 16 20 13 26 -4 8 -21 20 -19 20 4 0 24 -53 27 -59 3 -4 -15 -5 -16
-6 0 -1 12 -10 16 -35 15 -31 -1 -33 -2 -18 -15z"/>
<path d="M161 714 c-1 -27 9 -36 26 -23 7 6 13 7 13 2 0 -5 9 -9 20 -9 11 0
20 4 20 8 0 10 23 6 31 -6 10 -12 29 2 23 17 -3 9 -21 13 -49 12 -25 -1 -45 2
-45 7 0 16 -20 8 -21 -9 0 -15 -2 -15 -9 2 -8 20 -9 20 -9 -1z"/>
<path d="M86 674 c-9 -23 -8 -24 14 -24 11 0 20 2 20 4 0 12 -13 36 -20 36 -4
0 -11 -7 -14 -16z"/>
<path d="M250 649 c0 -25 1 -26 80 -26 44 -1 80 0 80 1 0 2 -9 13 -20 26 -11
13 -20 18 -20 13 0 -6 -18 -13 -40 -15 -31 -3 -40 0 -40 12 0 13 -1 13 -10 0
-9 -13 -11 -13 -20 0 -8 12 -10 10 -10 -11z"/>
<path d="M647 659 c-9 -5 -22 -7 -28 -3 -7 4 -10 -1 -7 -11 4 -24 28 -31 28
-9 0 16 1 16 15 -2 14 -18 14 -18 15 9 0 15 -1 27 -2 27 -2 0 -11 -5 -21 -11z"/>
<path d="M1248 652 c-10 -2 -18 -10 -18 -18 0 -17 12 -18 29 -1 11 10 12 9 6
-3 -8 -13 -7 -13 10 0 11 9 16 10 11 3 -4 -7 -2 -13 3 -13 6 0 11 9 11 19 0
19 -10 22 -52 13z"/>
<path d="M1310 645 c0 -8 5 -15 10 -15 6 0 10 6 10 13 0 8 4 7 10 -3 7 -11 10
-11 10 -2 0 7 5 10 10 7 6 -4 8 -11 5 -16 -4 -5 -1 -9 4 -9 6 0 11 9 11 20 0
16 -7 20 -35 20 -24 0 -35 -5 -35 -15z"/>
<path d="M1390 643 c0 -14 2 -15 9 -5 7 11 9 11 14 -2 8 -19 37 -10 37 12 0
13 -3 12 -15 -4 -13 -16 -14 -16 -9 -1 5 13 1 17 -15 17 -13 0 -21 -6 -21 -17z"/>
<path d="M1460 644 c0 -14 2 -16 9 -6 7 11 9 11 14 -1 8 -20 61 -15 65 6 2 9
-2 17 -8 17 -6 0 -9 -4 -6 -9 6 -9 -29 -7 -56 4 -13 5 -18 2 -18 -11z"/>
<path d="M1600 639 c0 -13 8 -16 33 -15 17 1 33 7 34 12 0 5 -3 8 -8 7 -5 -2
-9 1 -9 6 0 5 -11 8 -25 7 -16 0 -25 -7 -25 -17z"/>
<path d="M1689 659 c0 -2 -2 -11 -4 -19 -2 -13 9 -16 56 -16 50 0 59 3 59 18
0 14 -8 17 -45 16 -36 -2 -44 -6 -40 -18 3 -9 -1 -7 -10 4 -8 11 -15 18 -16
15z"/>
<path d="M1813 638 c0 -13 1 -17 4 -10 3 6 10 9 16 5 7 -4 20 -9 31 -10 16 -3
17 -1 6 12 -11 13 -10 14 4 9 9 -3 16 -9 16 -13 0 -3 75 -6 167 -5 146 1 168
3 171 17 4 18 -38 20 -50 2 -5 -6 -8 -4 -8 5 0 13 -1 13 -10 0 -6 -10 -10 -11
-10 -2 0 6 -5 12 -11 12 -6 0 -8 -7 -5 -16 5 -14 4 -15 -8 -5 -20 17 -69 21
-78 7 -6 -8 -8 -8 -8 2 0 6 -5 12 -11 12 -6 0 -8 -8 -5 -17 5 -15 4 -15 -9 1
-11 14 -15 16 -15 5 0 -10 -2 -11 -8 -2 -6 9 -47 12 -47 3 0 -1 -8 -3 -17 -5
-10 -2 -18 0 -18 4 0 4 -22 9 -48 10 -43 1 -48 -1 -49 -21z"/>
<path d="M2310 645 c0 -18 17 -28 32 -19 17 11 48 12 42 3 -2 -5 12 -6 33 -3
21 3 44 6 51 7 6 0 12 5 12 10 0 5 -16 7 -35 5 -19 -2 -35 -2 -35 2 0 3 -23 6
-50 7 -37 1 -50 -2 -50 -12z"/>
<path d="M2733 639 c-1 -13 5 -19 18 -19 10 0 19 7 19 15 0 20 10 19 26 -2 12
-17 13 -16 8 4 -8 29 -69 31 -71 2z"/>
<path d="M2810 653 c1 -18 17 -32 37 -30 34 2 26 37 -9 37 -15 0 -28 -3 -28
-7z"/>
<path d="M430 636 c0 -6 14 -12 30 -12 19 -1 30 3 30 11 0 9 -11 13 -30 13
-16 -1 -30 -6 -30 -12z"/>
<path d="M510 635 c0 -10 10 -15 30 -15 17 0 30 5 30 13 0 8 4 7 10 -3 8 -13
10 -12 10 3 0 20 -39 24 -59 5 -11 -10 -13 -10 -7 0 4 6 2 12 -3 12 -6 0 -11
-7 -11 -15z"/>
<path d="M1235 500 c-4 -6 -10 -8 -15 -5 -4 3 -10 -2 -14 -10 -3 -10 1 -15 14
-15 10 0 21 8 23 18 4 16 5 16 6 0 1 -14 10 -18 36 -18 21 0 35 5 35 13 0 8 4
7 10 -3 8 -13 10 -13 10 1 0 21 -31 30 -56 16 -13 -7 -19 -7 -22 1 -5 15 -19
15 -27 2z"/>
<path d="M1487 503 c-18 -17 -5 -33 27 -33 28 0 34 4 33 19 -1 14 -5 17 -13
11 -6 -6 -14 -7 -17 -3 -4 3 -7 1 -7 -6 0 -7 -5 -9 -10 -6 -6 4 -8 11 -5 16 7
10 1 12 -8 2z"/>
<path d="M1710 505 c-1 -5 -2 -14 -1 -18 1 -4 -7 -4 -16 1 -24 11 -45 10 -50
-4 -2 -7 32 -11 103 -12 98 -1 105 0 93 16 -12 15 -12 15 7 0 11 -10 32 -18
46 -18 27 0 45 25 26 36 -6 4 -8 3 -4 -4 3 -6 2 -13 -4 -17 -5 -3 -10 1 -10
10 0 9 -5 13 -10 10 -6 -4 -8 -10 -5 -15 3 -5 -7 -3 -22 5 -17 9 -31 11 -38 5
-7 -6 -15 -7 -18 -3 -4 3 -7 1 -7 -5 0 -7 -5 -12 -11 -12 -5 0 -8 4 -5 9 7 11
-13 9 -31 -2 -8 -5 -13 -3 -13 3 0 6 -4 9 -9 6 -5 -4 -12 0 -14 6 -3 7 -6 9
-7 3z"/>
<path d="M1986 502 c-4 -6 -15 -9 -25 -7 -11 2 -22 -2 -24 -9 -4 -10 14 -13
76 -12 77 1 106 13 76 32 -7 4 -9 3 -5 -4 3 -6 2 -13 -4 -17 -5 -3 -10 -2 -10
3 0 5 -15 8 -32 7 -18 -2 -36 2 -39 7 -4 7 -9 7 -13 0z"/>
<path d="M2110 493 c0 -21 4 -23 58 -23 62 0 74 4 66 24 -6 16 -38 14 -60 -5
-11 -9 -15 -9 -10 -1 5 8 0 12 -16 12 -18 0 -20 -2 -8 -10 9 -6 10 -10 3 -10
-7 0 -17 8 -22 18 -9 15 -10 15 -11 -5z"/>
<path d="M2317 503 c-4 -3 -7 -12 -7 -20 0 -17 36 -17 43 1 9 22 -5 27 -20 8
-14 -16 -14 -16 -9 1 6 18 4 21 -7 10z"/>
<path d="M2400 505 c-2 -5 -2 -13 -2 -16 1 -4 -8 -5 -18 -2 -11 3 -20 1 -20
-4 0 -6 23 -11 50 -12 35 -1 50 3 50 11 0 9 4 8 11 -2 8 -12 10 -12 7 -1 -5
16 -58 22 -59 6 0 -5 -4 -1 -9 10 -5 11 -9 16 -10 10z"/>
<path d="M2740 496 c0 -19 -16 -21 -23 -3 -4 7 -6 6 -6 -4 -1 -23 47 -31 59
-10 8 14 10 14 24 -4 9 -12 15 -15 16 -7 0 7 5 10 11 6 6 -3 15 0 20 7 6 10 9
11 9 1 0 -7 11 -11 29 -10 25 2 28 5 20 20 -11 20 -20 24 -16 7 1 -6 -4 -14
-11 -16 -7 -3 -10 1 -7 9 4 9 -2 14 -14 14 -11 0 -18 -4 -15 -7 2 -4 0 -10 -6
-14 -5 -3 -10 0 -10 7 0 9 -3 9 -10 -2 -7 -11 -10 -11 -10 -2 0 7 -8 12 -17
10 -10 -1 -24 1 -30 5 -9 5 -13 3 -13 -7z"/>
<path d="M168 458 c5 -21 6 -21 13 -2 7 16 8 17 8 2 1 -14 10 -18 40 -18 22 0
42 5 44 13 4 10 6 10 6 0 1 -7 10 -13 21 -13 12 0 17 5 14 13 -6 16 -94 20
-94 5 0 -5 -7 -2 -16 6 -23 24 -43 20 -36 -6z"/>
<path d="M70 425 c0 -15 7 -20 30 -21 24 -1 30 3 30 20 0 17 -6 21 -30 21 -23
0 -30 -4 -30 -20z"/>
<path d="M251 400 c-1 -24 2 -26 44 -25 36 0 44 3 40 15 -3 10 -1 10 9 -2 14
-19 72 -26 61 -8 -4 6 -12 7 -18 3 -7 -4 -5 2 3 12 9 11 10 16 3 11 -8 -4 -13
-2 -13 5 0 8 -4 8 -12 2 -7 -6 -20 -10 -28 -10 -8 -1 -23 -4 -32 -8 -13 -5
-18 -2 -18 11 -1 16 -3 15 -14 -6 l-14 -24 -5 24 -4 25 -2 -25z"/>
<path d="M647 393 c19 -29 23 -29 23 1 0 18 -5 24 -19 23 -17 -1 -18 -3 -4
-24z"/>
<path d="M458 403 c-37 -6 -36 -28 2 -29 23 -1 30 3 30 17 0 11 -1 18 -2 18
-2 -1 -15 -4 -30 -6z"/>
<path d="M517 403 c-16 -15 -5 -30 23 -31 22 0 30 4 31 16 0 14 2 13 10 -3 8
-19 9 -19 6 -1 -1 12 -11 20 -25 21 -14 1 -21 -3 -18 -10 2 -6 -2 -12 -10 -12
-8 0 -13 6 -10 14 6 14 3 17 -7 6z"/>
<path d="M1213 330 c1 -11 5 -20 10 -20 5 0 7 7 3 15 -3 8 -1 15 4 15 6 0 10
-8 11 -17 0 -15 2 -15 9 2 7 17 9 17 9 3 1 -10 5 -18 10 -18 6 0 9 8 8 18 -1
13 -10 19 -33 20 -27 2 -33 -1 -31 -18z"/>
<path d="M1293 333 c1 -20 6 -22 69 -21 61 1 68 3 68 21 0 21 0 21 -16 1 -8
-10 -13 -14 -10 -7 4 6 2 15 -4 18 -6 4 -9 1 -8 -6 2 -6 -3 -14 -11 -17 -8 -2
-11 0 -7 6 3 6 -8 9 -32 7 -20 -1 -40 3 -44 9 -4 6 -6 1 -5 -11z"/>
<path d="M1444 329 c0 -14 8 -19 28 -19 40 0 40 35 0 36 -21 1 -28 -3 -28 -17z"/>
<path d="M1563 332 c-1 -15 5 -19 33 -18 27 1 34 5 34 21 0 11 -4 16 -8 10 -9
-13 -42 -16 -42 -4 0 17 -16 9 -17 -9z"/>
<path d="M1643 329 c-2 -24 6 -24 23 -1 10 12 13 13 9 2 -4 -10 1 -16 13 -17
10 -1 18 6 19 15 1 12 -7 17 -31 18 -24 1 -32 -3 -33 -17z"/>
<path d="M1724 335 c-10 -8 -16 -15 -11 -16 23 -5 33 -4 39 6 5 6 8 6 8 -2 0
-7 5 -13 10 -13 6 0 10 9 10 20 0 24 -27 27 -56 5z"/>
<path d="M1810 327 c0 -17 2 -18 17 -6 11 10 14 10 9 2 -4 -7 -3 -13 3 -13 5
0 9 9 8 19 -2 26 -37 23 -37 -2z"/>
<path d="M1880 332 c0 -16 10 -18 100 -19 95 0 100 1 99 21 0 21 -1 21 -9 1
-8 -19 -9 -19 -9 0 -1 15 -4 16 -13 7 -15 -15 -32 -16 -23 -2 3 6 1 10 -5 10
-7 0 -10 -6 -7 -13 3 -8 -1 -14 -8 -14 -8 0 -11 7 -7 15 3 9 1 13 -5 9 -19
-12 -63 -16 -63 -5 0 6 -6 6 -15 -2 -10 -9 -15 -9 -15 -1 0 6 -4 11 -10 11 -5
0 -10 -8 -10 -18z"/>
<path d="M2096 342 c-11 -19 3 -32 35 -32 23 0 29 4 29 21 0 17 -3 19 -13 10
-8 -6 -17 -8 -20 -4 -4 3 -7 0 -8 -8 0 -8 -3 -6 -8 5 -5 14 -10 16 -15 8z"/>
<path d="M2317 343 c-14 -13 -6 -33 12 -33 19 0 35 23 24 34 -8 8 -28 8 -36
-1z"/>
<path d="M2376 338 c3 -4 0 -8 -5 -8 -6 0 -11 -4 -11 -10 0 -5 23 -10 50 -10
33 0 50 4 50 13 0 8 4 7 10 -3 9 -13 10 -13 10 0 0 13 1 13 10 0 8 -12 10 -10
10 10 0 18 -3 21 -12 12 -8 -8 -17 -8 -31 -1 -15 9 -18 8 -12 -2 6 -9 3 -11
-8 -6 -9 3 -18 1 -21 -6 -3 -7 -5 -6 -5 3 -1 9 -10 16 -20 16 -11 0 -17 -4
-15 -8z"/>
<path d="M2766 334 c-9 -23 -7 -31 3 -15 5 8 19 15 30 16 11 1 18 -2 15 -7 -4
-5 -12 -7 -20 -4 -8 3 -14 1 -14 -4 0 -17 52 -11 67 8 14 16 14 16 9 0 -6 -20
9 -25 20 -7 10 17 -13 34 -29 21 -8 -7 -17 -9 -21 -5 -15 15 -54 13 -60 -3z"/>
<path d="M1302 179 c-40 -16 -15 -26 63 -25 56 1 78 5 85 16 8 13 10 13 10 -1
0 -22 76 -21 90 1 9 13 10 13 10 0 0 -13 1 -13 10 0 8 13 10 13 10 -1 0 -12 9
-16 33 -15 17 1 38 5 46 10 10 6 12 5 7 -2 -10 -17 3 -15 20 2 20 20 18 22
-21 23 -19 1 -35 -3 -35 -7 0 -9 -13 -8 -47 4 -12 4 -31 2 -42 -3 -13 -8 -20
-8 -23 0 -2 6 -12 7 -22 3 -19 -7 -19 -8 0 -15 17 -7 17 -8 1 -8 -10 -1 -20 6
-23 14 -9 22 -45 20 -38 -2 5 -17 5 -17 -6 0 -6 9 -16 15 -21 12 -5 -4 -7 -10
-5 -14 3 -4 -1 -8 -8 -8 -8 0 -12 6 -9 14 3 7 0 13 -7 13 -6 0 -9 -4 -6 -9 3
-5 -1 -11 -9 -15 -8 -3 -14 -2 -14 2 3 21 -3 24 -16 6 -13 -16 -14 -16 -9 -1
7 19 7 19 -24 6z"/>
<path d="M1856 172 c-16 -18 -14 -19 49 -18 56 1 65 3 65 20 0 13 -3 16 -12 9
-13 -11 -30 -10 -65 1 -13 4 -26 0 -37 -12z"/>
<path d="M2004 168 c0 -10 4 -18 8 -18 4 0 8 5 8 10 0 6 5 10 11 10 5 0 8 -4
5 -8 -3 -5 10 -9 29 -9 26 0 35 5 35 18 0 13 -9 17 -48 16 -39 -1 -48 -4 -48
-19z"/>
<path d="M2110 181 c0 -12 23 -31 37 -31 13 0 19 29 6 31 -5 0 -16 2 -25 4
-10 2 -18 0 -18 -4z"/>
<path d="M2223 172 c-1 -11 6 -18 18 -19 19 -2 22 16 4 29 -16 12 -21 9 -22
-10z"/>
<path d="M2310 169 c0 -12 7 -19 20 -19 11 0 20 6 20 13 0 8 3 9 8 1 10 -15
102 -16 102 -1 0 7 5 5 10 -3 8 -12 10 -12 11 5 0 20 0 20 9 0 8 -19 9 -19 9
2 1 18 -4 21 -34 18 -19 -2 -39 -6 -45 -10 -5 -3 -10 -3 -10 2 0 4 -23 9 -50
10 -43 2 -50 -1 -50 -18z"/>
<path d="M2763 175 c-3 -9 -3 -19 1 -22 3 -4 6 1 6 10 0 10 4 17 10 17 5 0 7
-6 4 -13 -3 -10 4 -14 26 -15 24 -1 30 3 26 14 -3 9 -6 18 -6 20 0 2 -5 4 -11
4 -6 0 -9 -6 -6 -13 3 -8 -1 -14 -8 -14 -7 0 -11 6 -8 14 3 7 -2 13 -11 13 -9
0 -19 -7 -23 -15z"/>
<path d="M2840 182 c1 -16 17 -28 42 -30 21 -1 26 3 25 17 -1 15 -9 19 -34 19
-18 0 -33 -3 -33 -6z"/>
<path d="M840 38 c0 -17 3 -28 7 -24 4 4 8 15 8 24 0 16 47 17 618 20 409 1
617 -1 618 -8 1 -5 2 -15 3 -22 0 -6 7 -13 14 -15 8 -3 12 6 12 26 l0 31 -640
0 -640 0 0 -32z"/>
</g>
</svg>
